<!--
Diagram(
  Optional
  (
      Sequence
      (
          Optional
          (
              Sequence('catalog', '.'),
              'skip'
          ),
          'entity',
          '.'
      ),
      'skip'
  ),
  Terminal('field')
);
-->
<svg xmlns="http://www.w3.org/2000/svg" class="railroad-diagram" width="521" height="120" viewBox="0 0 521 120">
    <g transform="translate(.5 .5)">
        <path d="M 20 21 v 20 m 10 -20 v 20 m -10 -10 h 20.5"></path>
        <g>
            <path d="M40 31h0"></path>
            <path d="M400 31h0"></path>
            <path d="M40 31h20"></path>
            <g>
                <path d="M60 31h320"></path>
            </g>
            <path d="M380 31h20"></path>
            <path d="M40 31a10 10 0 0 1 10 10v0a10 10 0 0 0 10 10"></path>
            <g>
                <path d="M60 51h0"></path>
                <path d="M380 51h0"></path>
                <g>
                    <path d="M60 51h0"></path>
                    <path d="M244 51h0"></path>
                    <path d="M60 51h20"></path>
                    <g>
                        <path d="M80 51h144"></path>
                    </g>
                    <path d="M224 51h20"></path>
                    <path d="M60 51a10 10 0 0 1 10 10v0a10 10 0 0 0 10 10"></path>
                    <g>
                        <path d="M80 71h0"></path>
                        <path d="M224 71h0"></path>
                        <path d="M80 71h10"></path>
                        <g>
                            <path d="M90 71h0"></path>
                            <path d="M166 71h0"></path>
                            <rect x="90" y="60" width="76" height="22" rx="10" ry="10"></rect>
                            <text x="128" y="75">catalog</text>
                        </g>
                        <path d="M166 71h10"></path>
                        <path d="M176 71h10"></path>
                        <g>
                            <path d="M186 71h0"></path>
                            <path d="M214 71h0"></path>
                            <rect x="186" y="60" width="28" height="22" rx="10" ry="10"></rect>
                            <text x="200" y="75">.</text>
                        </g>
                        <path d="M214 71h10"></path>
                    </g>
                    <path d="M224 71a10 10 0 0 0 10 -10v0a10 10 0 0 1 10 -10"></path>
                </g>
                <path d="M244 51h10"></path>
                <g>
                    <path d="M254 51h0"></path>
                    <path d="M322 51h0"></path>
                    <rect x="254" y="40" width="68" height="22" rx="10" ry="10"></rect>
                    <text x="288" y="55">entity</text>
                </g>
                <path d="M322 51h10"></path>
                <path d="M332 51h10"></path>
                <g>
                    <path d="M342 51h0"></path>
                    <path d="M370 51h0"></path>
                    <rect x="342" y="40" width="28" height="22" rx="10" ry="10"></rect>
                    <text x="356" y="55">.</text>
                </g>
                <path d="M370 51h10"></path>
            </g>
            <path d="M380 51a10 10 0 0 0 10 -10v0a10 10 0 0 1 10 -10"></path>
        </g>
        <path d="M400 31h10"></path>
        <g>
            <path d="M410 31h0"></path>
            <path d="M470 31h0"></path>
            <rect x="410" y="20" width="60" height="22" rx="10" ry="10"></rect>
            <text x="440" y="35">field</text>
        </g>
        <path d="M470 31h10"></path>
        <path d="M 480 31 h 20 m -10 -10 v 20 m 10 -20 v 20"></path>
    </g>
    <style>
        svg.railroad-diagram {
        background-color: hsl(30,20%,95%);
        }
        svg.railroad-diagram path {
        stroke-width: 3;
        stroke: black;
        fill: rgba(0,0,0,0);
        }
        svg.railroad-diagram text {
        font: bold 14px monospace;
        text-anchor: middle;
        }
        svg.railroad-diagram text.label {
        text-anchor: start;
        }
        svg.railroad-diagram text.comment {
        font: italic 12px monospace;
        }
        svg.railroad-diagram rect {
        stroke-width: 3;
        stroke: black;
        fill: hsl(120,100%,90%);
        }
    </style>
</svg>
